<svg width="128" height="128" viewBox="0 0 128 128" xmlns="http://www.w3.org/2000/svg">
  <rect width="128" height="128" rx="16" fill="#478CBF"/>
  <path d="M64 16C37.49 16 16 37.49 16 64C16 90.51 37.49 112 64 112C90.51 112 112 90.51 112 64C112 37.49 90.51 16 64 16ZM64 28C77.24 28 88.13 38.89 88.13 52.13C88.13 65.36 77.24 76.25 64 76.25C50.76 76.25 39.88 65.36 39.88 52.13C39.88 38.89 50.76 28 64 28ZM64 104C50.83 104 39.29 97.23 32.24 87.06C39.28 79.34 51.15 75.13 64 75.13C76.85 75.13 88.72 79.34 95.77 87.06C88.71 97.23 77.17 104 64 104Z" fill="white"/>
</svg>